<svg width="96.61347809275257" height="156.79999999999998" viewBox="0 0 276.33730010697485 448.48492686678276" class="looka-1j8o68f"><defs id="SvgjsDefs1334"></defs><g id="SvgjsG1335" featurekey="MI9fam-0" transform="matrix(3.3247101819587526,0,0,3.3247101819587526,-28.033606700421977,-17.925896265484383)" fill="#51dacf"><g xmlns="http://www.w3.org/2000/svg"><path fill="#51dacf" d="M16.9,34.8c0.4,4.6,1.6,8.8,4.5,12.5c3.2,4.1,4.4,8.6,3.5,13.7c-0.6,3.2,0.7,4.7,3.9,4.9   c4,0.2,7.1,1.2,8.2,5.8c0.3,1.4,2.6,2.4,3.9,3.5l2.7-3.7l2.4,0.4l-0.2,4.6h2.5l0.4-3.1l3,0.2v3H54l0.2-4.5h2.5l2.4,2.8   c2.2-0.6,4.2-1.6,4.7-4.6c0.5-2.6,2.8-3.5,5.1-4.1c0.9-0.2,1.9-0.2,2.9-0.3c2.8-0.3,4.1-1.8,3.6-4.5c-1-5.5,0.4-10.1,3.7-14.6   c4.3-5.8,5.4-12.4,3-19.4c-0.4-1.3-1-2.6-1.3-3.9c-1-5.4-4.5-8.9-8.7-11.8c-13.5-9.4-35.6-8.1-47.4,2.6c-2.4,2.2-4.3,4.6-5.1,8   C18.8,26.4,16.5,30.3,16.9,34.8z M54,47.3c0-0.7,0.3-1.4,0.6-2c2.2-4,5.9-4.6,9.9-4.6c2,0.2,4,0.3,5.9,0.8c2.7,0.6,3.3,2.3,2.3,4.9   c-0.6,1.5-0.8,3.2-1,4.9c-0.1,0.8-0.3,1.4-0.6,1.9c-0.4,1.5-1.3,2.7-3.3,3c-2.2,0.3-5.2-0.6-7.3-2C57.3,53.3,54.2,50.5,54,47.3z    M45.6,59.5c1-1.7,1.8-3.5,2.8-5.2c0.4-0.6,1.1-1.4,1.7-1.5c0.6,0,1.4,0.7,1.7,1.3c1.1,1.8,2,3.8,3,5.6c1.2,2.1,0.9,4.2-0.9,5.3   c-0.3,0.2-0.7,0.3-1,0.4c-0.4,0.2-0.8,0.3-1.2,0.4c-0.5,0-1.1,0-1.6-0.1c-0.8,0.2-1.7,0.1-2.4-0.2c0,0,0,0,0,0   c-0.4-0.1-0.9-0.2-1.3-0.5C44.5,63.8,44.3,61.7,45.6,59.5z M29.5,41.5c1.9-0.5,4-0.6,5.6-0.8c1.9,0.2,3.5,0.2,5.1,0.5   c5.3,1.1,7.1,5.7,3.8,9.8c-0.5,0.6-1,1.3-1.5,1.9c-0.9,1.1-1.9,1.7-2.9,1.9c-2.5,1.3-5.8,2.2-8.4,0.9c-1.2-0.6-1.7-1.4-2-2.5   c-0.5-0.4-0.7-1.1-0.8-2.4c-0.1-1.6-0.5-3.2-1.1-4.6C26.4,43.8,27,42.2,29.5,41.5z"></path><path fill="#51dacf" d="M64.6,82.6c2.5-3.4,0.3-8.2,2.8-11.8c1.8,0.6,1.7,1.8,1.7,3.3c-0.1,2.7,0.2,5.4,0.1,8.1   c-0.1,1.4-0.2,3.2-1.1,4.2c-10.9,12.4-25.6,12.2-36.3,0c-0.8-0.9-1.1-2.3-1.2-3.5c-0.1-3.1,0.2-6.2,0.2-9.3c0-1.4,0.2-2.5,2.4-2.7   c0.3,2.9,0.7,5.7,0.9,8.6c0.1,1.4,0.3,2.6,2,3.3l1.2-5l1.1-0.1l0.4,5.5h1.2l0.7-4l3.2-0.1l-0.5,4.6l1.4-0.1l0.6-3.9h3l-0.6,4.4   l2.6-0.1l0.3-4.5l2.6-0.1l0.1,4.3l2.8-0.1l0.1-3.4l2.7,0.1l-0.1,2.9h1.7V78l2.1-0.2L64.6,82.6z"></path></g></g><g id="SvgjsG1336" featurekey="EI8VXn-0" transform="matrix(2.732766153585439,0,0,2.732766153585439,-3.279322772322088,304.09530051702234)" fill="#51dacf"><path d="M5.28 6.140000000000001 q0.36 0.66 0.83 1.63 t0.98 2.1 t1.01 2.31 t0.94 2.22 q0.44 -1.04 0.94 -2.22 t1.01 -2.31 t0.98 -2.1 t0.83 -1.63 l2.84 0 q0.2 1.38 0.37 3.09 t0.3 3.56 t0.24 3.71 t0.19 3.5 l-3.04 0 q-0.06 -2.02 -0.16 -4.4 t-0.3 -4.8 q-0.36 0.84 -0.8 1.86 t-0.87 2.04 t-0.83 1.95 t-0.68 1.59 l-2.18 0 q-0.28 -0.66 -0.68 -1.59 t-0.83 -1.95 t-0.87 -2.04 t-0.8 -1.86 q-0.2 2.42 -0.3 4.8 t-0.16 4.4 l-3.04 0 q0.08 -1.64 0.19 -3.5 t0.24 -3.71 t0.3 -3.56 t0.37 -3.09 l2.98 0 z M19.540000000000003 20 l0 -13.86 l9.36 0 l0 2.62 l-6.24 0 l0 2.72 l5.54 0 l0 2.56 l-5.54 0 l0 3.34 l6.7 0 l0 2.62 l-9.82 0 z M35.34 6.140000000000001 q0.36 0.66 0.83 1.63 t0.98 2.1 t1.01 2.31 t0.94 2.22 q0.44 -1.04 0.94 -2.22 t1.01 -2.31 t0.98 -2.1 t0.83 -1.63 l2.84 0 q0.2 1.38 0.37 3.09 t0.3 3.56 t0.24 3.71 t0.19 3.5 l-3.04 0 q-0.06 -2.02 -0.16 -4.4 t-0.3 -4.8 q-0.36 0.84 -0.8 1.86 t-0.87 2.04 t-0.83 1.95 t-0.68 1.59 l-2.18 0 q-0.28 -0.66 -0.68 -1.59 t-0.83 -1.95 t-0.87 -2.04 t-0.8 -1.86 q-0.2 2.42 -0.3 4.8 t-0.16 4.4 l-3.04 0 q0.08 -1.64 0.19 -3.5 t0.24 -3.71 t0.3 -3.56 t0.37 -3.09 l2.98 0 z M49.6 20 l0 -13.86 l9.36 0 l0 2.62 l-6.24 0 l0 2.72 l5.54 0 l0 2.56 l-5.54 0 l0 3.34 l6.7 0 l0 2.62 l-9.82 0 z M71.02000000000001 20 q-1.34 -2.38 -2.9 -4.7 t-3.32 -4.38 l0 9.08 l-3.08 0 l0 -13.86 l2.54 0 q0.66 0.66 1.46 1.62 t1.63 2.05 t1.65 2.26 t1.54 2.25 l0 -8.18 l3.1 0 l0 13.86 l-2.62 0 z M87.12 6.140000000000001 l0 2.66 l-4.18 0 l0 11.2 l-3.12 0 l0 -11.2 l-4.18 0 l0 -2.66 l11.48 0 z M91.74000000000001 13.059999999999999 q0 1.02 0.25 1.84 t0.72 1.41 t1.15 0.91 t1.56 0.32 q0.86 0 1.55 -0.32 t1.16 -0.91 t0.72 -1.41 t0.25 -1.84 t-0.25 -1.85 t-0.72 -1.42 t-1.16 -0.91 t-1.55 -0.32 q-0.88 0 -1.56 0.33 t-1.15 0.92 t-0.72 1.42 t-0.25 1.83 z M102.32000000000001 13.059999999999999 q0 1.78 -0.53 3.13 t-1.45 2.26 t-2.19 1.37 t-2.73 0.46 q-1.42 0 -2.68 -0.46 t-2.2 -1.37 t-1.48 -2.26 t-0.54 -3.13 t0.56 -3.13 t1.51 -2.27 t2.2 -1.38 t2.63 -0.46 q1.42 0 2.68 0.46 t2.2 1.38 t1.48 2.27 t0.54 3.13 z"></path></g><g id="SvgjsG1337" featurekey="EI8VXn-1" transform="matrix(5.461211629251433,0,0,5.461211629251433,-6.553460725784166,338.21574738027755)" fill="#51dacf"><path d="M5.28 6.140000000000001 q0.36 0.66 0.83 1.63 t0.98 2.1 t1.01 2.31 t0.94 2.22 q0.44 -1.04 0.94 -2.22 t1.01 -2.31 t0.98 -2.1 t0.83 -1.63 l2.84 0 q0.2 1.38 0.37 3.09 t0.3 3.56 t0.24 3.71 t0.19 3.5 l-3.04 0 q-0.06 -2.02 -0.16 -4.4 t-0.3 -4.8 q-0.36 0.84 -0.8 1.86 t-0.87 2.04 t-0.83 1.95 t-0.68 1.59 l-2.18 0 q-0.28 -0.66 -0.68 -1.59 t-0.83 -1.95 t-0.87 -2.04 t-0.8 -1.86 q-0.2 2.42 -0.3 4.8 t-0.16 4.4 l-3.04 0 q0.08 -1.64 0.19 -3.5 t0.24 -3.71 t0.3 -3.56 t0.37 -3.09 l2.98 0 z M22.16 13.059999999999999 q0 1.02 0.25 1.84 t0.72 1.41 t1.15 0.91 t1.56 0.32 q0.86 0 1.55 -0.32 t1.16 -0.91 t0.72 -1.41 t0.25 -1.84 t-0.25 -1.85 t-0.72 -1.42 t-1.16 -0.91 t-1.55 -0.32 q-0.88 0 -1.56 0.33 t-1.15 0.92 t-0.72 1.42 t-0.25 1.83 z M32.74 13.059999999999999 q0 1.78 -0.53 3.13 t-1.45 2.26 t-2.19 1.37 t-2.73 0.46 q-1.42 0 -2.68 -0.46 t-2.2 -1.37 t-1.48 -2.26 t-0.54 -3.13 t0.56 -3.13 t1.51 -2.27 t2.2 -1.38 t2.63 -0.46 q1.42 0 2.68 0.46 t2.2 1.38 t1.48 2.27 t0.54 3.13 z M39.400000000000006 5.98 q3.12 0 4.78 1.11 t1.66 3.45 q0 1.46 -0.67 2.37 t-1.93 1.43 q0.42 0.52 0.88 1.19 t0.91 1.4 t0.87 1.52 t0.78 1.55 l-3.5 0 q-0.38 -0.68 -0.77 -1.38 t-0.8 -1.36 t-0.81 -1.25 t-0.8 -1.07 l-1.54 0 l0 5.06 l-3.12 0 l0 -13.66 q1.02 -0.2 2.11 -0.28 t1.95 -0.08 z M39.58 8.64 q-0.34 0 -0.61 0.02 t-0.51 0.04 l0 3.76 l0.88 0 q1.76 0 2.52 -0.44 t0.76 -1.5 q0 -1.02 -0.77 -1.45 t-2.27 -0.43 z M48.68 6.140000000000001 l3.12 0 l0 13.86 l-3.12 0 l0 -13.86 z"></path></g></svg>