<svg xmlns="http://www.w3.org/2000/svg"><path fill="#3498db" d="M16.9,34.8c0.4,4.6,1.6,8.8,4.5,12.5c3.2,4.1,4.4,8.6,3.5,13.7c-0.6,3.2,0.7,4.7,3.9,4.9   c4,0.2,7.1,1.2,8.2,5.8c0.3,1.4,2.6,2.4,3.9,3.5l2.7-3.7l2.4,0.4l-0.2,4.6h2.5l0.4-3.1l3,0.2v3H54l0.2-4.5h2.5l2.4,2.8   c2.2-0.6,4.2-1.6,4.7-4.6c0.5-2.6,2.8-3.5,5.1-4.1c0.9-0.2,1.9-0.2,2.9-0.3c2.8-0.3,4.1-1.8,3.6-4.5c-1-5.5,0.4-10.1,3.7-14.6   c4.3-5.8,5.4-12.4,3-19.4c-0.4-1.3-1-2.6-1.3-3.9c-1-5.4-4.5-8.9-8.7-11.8c-13.5-9.4-35.6-8.1-47.4,2.6c-2.4,2.2-4.3,4.6-5.1,8   C18.8,26.4,16.5,30.3,16.9,34.8z M54,47.3c0-0.7,0.3-1.4,0.6-2c2.2-4,5.9-4.6,9.9-4.6c2,0.2,4,0.3,5.9,0.8c2.7,0.6,3.3,2.3,2.3,4.9   c-0.6,1.5-0.8,3.2-1,4.9c-0.1,0.8-0.3,1.4-0.6,1.9c-0.4,1.5-1.3,2.7-3.3,3c-2.2,0.3-5.2-0.6-7.3-2C57.3,53.3,54.2,50.5,54,47.3z    M45.6,59.5c1-1.7,1.8-3.5,2.8-5.2c0.4-0.6,1.1-1.4,1.7-1.5c0.6,0,1.4,0.7,1.7,1.3c1.1,1.8,2,3.8,3,5.6c1.2,2.1,0.9,4.2-0.9,5.3   c-0.3,0.2-0.7,0.3-1,0.4c-0.4,0.2-0.8,0.3-1.2,0.4c-0.5,0-1.1,0-1.6-0.1c-0.8,0.2-1.7,0.1-2.4-0.2c0,0,0,0,0,0   c-0.4-0.1-0.9-0.2-1.3-0.5C44.5,63.8,44.3,61.7,45.6,59.5z M29.5,41.5c1.9-0.5,4-0.6,5.6-0.8c1.9,0.2,3.5,0.2,5.1,0.5   c5.3,1.1,7.1,5.7,3.8,9.8c-0.5,0.6-1,1.3-1.5,1.9c-0.9,1.1-1.9,1.7-2.9,1.9c-2.5,1.3-5.8,2.2-8.4,0.9c-1.2-0.6-1.7-1.4-2-2.5   c-0.5-0.4-0.7-1.1-0.8-2.4c-0.1-1.6-0.5-3.2-1.1-4.6C26.4,43.8,27,42.2,29.5,41.5z"></path><path fill="#3498db" d="M64.6,82.6c2.5-3.4,0.3-8.2,2.8-11.8c1.8,0.6,1.7,1.8,1.7,3.3c-0.1,2.7,0.2,5.4,0.1,8.1   c-0.1,1.4-0.2,3.2-1.1,4.2c-10.9,12.4-25.6,12.2-36.3,0c-0.8-0.9-1.1-2.3-1.2-3.5c-0.1-3.1,0.2-6.2,0.2-9.3c0-1.4,0.2-2.5,2.4-2.7   c0.3,2.9,0.7,5.7,0.9,8.6c0.1,1.4,0.3,2.6,2,3.3l1.2-5l1.1-0.1l0.4,5.5h1.2l0.7-4l3.2-0.1l-0.5,4.6l1.4-0.1l0.6-3.9h3l-0.6,4.4   l2.6-0.1l0.3-4.5l2.6-0.1l0.1,4.3l2.8-0.1l0.1-3.4l2.7,0.1l-0.1,2.9h1.7V78l2.1-0.2L64.6,82.6z"></path></svg>